<svg width="278" height="318" viewBox="0 0 278 318" fill="none" xmlns="http://www.w3.org/2000/svg">
<path d="M136.485 188.54C140.149 148.53 172.977 55.4084 274.98 3" stroke="white" stroke-width="5"/>
<path d="M135.166 218.877C133.993 246.283 143.959 303.821 193.202 314.725C207.564 313.406 231.981 303.205 214.746 272.956C230.281 265.921 252.029 245.257 214.746 218.877C202.435 214.92 174.824 206.566 162.865 204.808C192.176 214.48 255.635 222.746 274.98 178.428C275.42 164.944 268.737 140.264 238.488 149.409C233.798 121.71 210.349 86.9767 154.071 169.634C167.994 143.694 185.728 85.218 145.278 58.8379C133.261 52.0963 109.665 48.1979 111.424 86.537C80.3538 86.0973 38.8785 102.101 121.536 169.634C102.63 149.116 54.7066 113.357 14.2571 134.461C3.85167 144.427 -8.69352 167.172 24.3695 178.428C15.1365 206.566 19.3573 250.005 110.105 198.652C78.1555 211.549 19.5332 247.719 40.6372 289.224C46.3529 298.896 63.1482 312.438 84.604 289.224C106.001 309.888 146.07 324.749 135.166 218.877Z" stroke="white" stroke-width="5"/>
</svg>
