<svg width="71" height="73" viewBox="0 0 71 73" fill="none" xmlns="http://www.w3.org/2000/svg">
<path d="M47.9342 16.0245C41.6976 14.9851 39.8497 7.21825 39.7053 3.46475C32.7758 3.46475 19.7829 4.76404 8.52246 15.1583C-0.485933 23.4738 0.438004 40.5666 2.02602 48.0736C5.20206 56.5912 17.1844 73.1065 39.7053 71.0277C62.2263 68.9488 68.1453 48.7954 68.2897 38.9786C62.3996 38.6321 60.3496 33.3484 60.0608 30.7498C50.013 30.4033 47.7898 20.7886 47.9342 16.0245Z" stroke="#FBEABE" stroke-width="2"/>
<path d="M27.4449 22.9541C27.4449 24.458 26.0553 25.8519 24.1139 25.8519C22.1726 25.8519 20.783 24.458 20.783 22.9541C20.783 21.4501 22.1726 20.0562 24.1139 20.0562C26.0553 20.0562 27.4449 21.4501 27.4449 22.9541Z" stroke="#FBEABE" stroke-width="2"/>
<path d="M43.9025 31.616C43.9025 33.1199 42.5129 34.5139 40.5716 34.5139C38.6302 34.5139 37.2406 33.1199 37.2406 31.616C37.2406 30.1121 38.6302 28.7181 40.5716 28.7181C42.5129 28.7181 43.9025 30.1121 43.9025 31.616Z" stroke="#FBEABE" stroke-width="2"/>
<path d="M53.4307 3.89786C53.4307 5.40181 52.041 6.79572 50.0997 6.79572C48.1583 6.79572 46.7687 5.40181 46.7687 3.89786C46.7687 2.39392 48.1583 1 50.0997 1C52.041 1 53.4307 2.39392 53.4307 3.89786Z" stroke="#FBEABE" stroke-width="2"/>
<path d="M59.494 21.6548C59.494 22.9086 58.3105 24.1196 56.5961 24.1196C54.8817 24.1196 53.6982 22.9086 53.6982 21.6548C53.6982 20.401 54.8817 19.19 56.5961 19.19C58.3105 19.19 59.494 20.401 59.494 21.6548Z" stroke="#FBEABE" stroke-width="2"/>
<path d="M69.8883 30.7498C69.8883 31.2305 69.3511 31.9153 68.2897 31.9153C67.2284 31.9153 66.6912 31.2305 66.6912 30.7498C66.6912 30.2691 67.2284 29.5843 68.2897 29.5843C69.3511 29.5843 69.8883 30.2691 69.8883 30.7498Z" stroke="#FBEABE" stroke-width="2"/>
<path d="M66.4235 15.1583C66.4235 15.639 65.8863 16.3238 64.825 16.3238C63.7636 16.3238 63.2264 15.639 63.2264 15.1583C63.2264 14.6776 63.7636 13.9929 64.825 13.9929C65.8863 13.9929 66.4235 14.6776 66.4235 15.1583Z" stroke="#FBEABE" stroke-width="2"/>
<path d="M56.0292 48.9398C56.0292 50.4438 54.6396 51.8377 52.6983 51.8377C50.7569 51.8377 49.3673 50.4438 49.3673 48.9398C49.3673 47.4359 50.7569 46.042 52.6983 46.042C54.6396 46.042 56.0292 47.4359 56.0292 48.9398Z" stroke="#FBEABE" stroke-width="2"/>
<path d="M30.9097 55.0031C30.9097 56.5071 29.52 57.901 27.5787 57.901C25.6373 57.901 24.2477 56.5071 24.2477 55.0031C24.2477 53.4992 25.6373 52.1053 27.5787 52.1053C29.52 52.1053 30.9097 53.4992 30.9097 55.0031Z" stroke="#FBEABE" stroke-width="2"/>
<path d="M18.783 42.0103C18.783 43.5142 17.3934 44.9081 15.4521 44.9081C13.5107 44.9081 12.1211 43.5142 12.1211 42.0103C12.1211 40.5063 13.5107 39.1124 15.4521 39.1124C17.3934 39.1124 18.783 40.5063 18.783 42.0103Z" stroke="#FBEABE" stroke-width="2"/>
</svg>
