<svg width="1440" height="1024" viewBox="0 0 1440 1024" fill="none" xmlns="http://www.w3.org/2000/svg">
<g id="Desktop - 1" clip-path="url(#clip0_9:2)">
<rect width="1440" height="1024" fill="white"/>
<rect id="background" x="-1.5" y="0.5" width="1439" height="1023" fill="#BCAAFF" stroke="black"/>
<g id="logo-12">
<path id="Vector 3" d="M1290.26 931.967C1302.49 907.135 1337.39 909.201 1353.31 913.338C1362.06 884.288 1373.03 828.179 1343.68 767.841C1320.2 719.57 1247.38 701.848 1213.9 699.021C1174.18 701.574 1089.81 730.94 1070.07 827.978C1050.33 925.017 1127.34 975.292 1168.31 988.3C1177.21 964.046 1201.95 962.127 1213.2 964.2C1227.35 922.515 1270.47 925.343 1290.26 931.967Z" stroke="white" stroke-width="4"/>
<path id="Ellipse 1" d="M1286.41 839.595C1278.62 837.249 1274.11 828.171 1276.88 819.006C1279.64 809.842 1288.41 804.767 1296.2 807.112C1303.98 809.458 1308.49 818.537 1305.73 827.701C1302.96 836.866 1294.19 841.94 1286.41 839.595Z" stroke="white" stroke-width="4"/>
<path id="Ellipse 2" d="M1229.3 897.644C1221.52 895.299 1217.01 886.22 1219.77 877.056C1222.53 867.891 1231.31 862.817 1239.09 865.162C1246.87 867.507 1251.38 876.586 1248.62 885.751C1245.86 894.915 1237.08 899.99 1229.3 897.644Z" stroke="white" stroke-width="4"/>
<path id="Ellipse 6" d="M1333.46 972.607C1325.68 970.262 1321.17 961.183 1323.93 952.019C1326.69 942.854 1335.47 937.78 1343.25 940.125C1351.03 942.47 1355.54 951.549 1352.78 960.714C1350.02 969.878 1341.24 974.953 1333.46 972.607Z" stroke="white" stroke-width="4"/>
<path id="Ellipse 7" d="M1251.36 975.592C1244.6 973.555 1240.63 965.551 1243.1 957.366C1245.57 949.18 1253.3 944.704 1260.06 946.74C1266.82 948.777 1270.79 956.781 1268.32 964.966C1265.85 973.152 1258.12 977.628 1251.36 975.592Z" stroke="white" stroke-width="4"/>
<path id="Ellipse 8" d="M1200.1 1007.68C1196.46 1006.58 1194.05 1001.84 1195.64 996.538C1197.24 991.237 1201.87 988.62 1205.51 989.718C1209.16 990.816 1211.57 995.555 1209.97 1000.86C1208.37 1006.16 1203.75 1008.77 1200.1 1007.68Z" stroke="white" stroke-width="4"/>
<path id="Ellipse 9" d="M1269.84 1012.85C1266.2 1011.75 1263.79 1007.01 1265.38 1001.71C1266.98 996.411 1271.61 993.793 1275.25 994.892C1278.9 995.99 1281.31 1000.73 1279.71 1006.03C1278.11 1011.33 1273.49 1013.95 1269.84 1012.85Z" stroke="white" stroke-width="4"/>
<path id="Ellipse 3" d="M1141.36 926.594C1133.57 924.249 1129.06 915.17 1131.82 906.006C1134.59 896.841 1143.36 891.767 1151.15 894.112C1158.93 896.457 1163.44 905.536 1160.68 914.701C1157.91 923.865 1149.14 928.94 1141.36 926.594Z" stroke="white" stroke-width="4"/>
<path id="Ellipse 4" d="M1147.67 813.628C1139.89 811.283 1135.38 802.204 1138.14 793.04C1140.9 783.875 1149.68 778.801 1157.46 781.146C1165.25 783.491 1169.76 792.57 1166.99 801.735C1164.23 810.899 1155.46 815.974 1147.67 813.628Z" stroke="white" stroke-width="4"/>
<path id="Ellipse 5" d="M1217.46 779.207C1209.68 776.861 1205.17 767.782 1207.93 758.618C1210.69 749.453 1219.47 744.379 1227.25 746.724C1235.03 749.07 1239.55 758.148 1236.78 767.313C1234.02 776.477 1225.25 781.552 1217.46 779.207Z" stroke="white" stroke-width="4"/>
</g>
<g id="logo-2">
<path id="Vector 3_2" d="M581.335 252.446C593.572 227.614 628.466 229.68 644.384 233.817C653.139 204.768 664.107 148.658 634.759 88.3196C611.281 40.049 538.458 22.327 504.981 19.4998C465.261 22.053 380.887 51.4192 361.149 148.457C341.41 245.496 418.418 295.771 459.39 308.779C468.284 284.525 493.025 282.606 504.283 284.679C518.43 242.994 561.545 245.822 581.335 252.446Z" stroke="white" stroke-width="4"/>
<path id="Ellipse 1_2" d="M577.485 160.074C569.703 157.728 565.192 148.65 567.954 139.485C570.716 130.321 579.492 125.246 587.274 127.591C595.057 129.937 599.567 139.016 596.805 148.18C594.043 157.345 585.267 162.419 577.485 160.074Z" stroke="white" stroke-width="4"/>
<path id="Ellipse 2_2" d="M520.38 218.123C512.598 215.778 508.087 206.699 510.849 197.535C513.611 188.37 522.387 183.296 530.169 185.641C537.952 187.986 542.462 197.065 539.7 206.23C536.938 215.394 528.162 220.469 520.38 218.123Z" stroke="white" stroke-width="4"/>
<path id="Ellipse 6_2" d="M624.541 293.086C616.759 290.741 612.248 281.662 615.01 272.498C617.772 263.333 626.548 258.259 634.331 260.604C642.113 262.949 646.623 272.028 643.861 281.193C641.099 290.357 632.323 295.432 624.541 293.086Z" stroke="white" stroke-width="4"/>
<path id="Ellipse 7_2" d="M542.441 296.071C535.682 294.034 531.711 286.03 534.178 277.845C536.645 269.66 544.377 265.183 551.136 267.22C557.894 269.256 561.865 277.26 559.398 285.445C556.931 293.631 549.199 298.108 542.441 296.071Z" stroke="white" stroke-width="4"/>
<path id="Ellipse 8_2" d="M491.18 328.154C487.536 327.056 485.126 322.317 486.723 317.017C488.321 311.716 492.948 309.099 496.592 310.197C500.236 311.295 502.647 316.034 501.049 321.335C499.452 326.635 494.824 329.253 491.18 328.154Z" stroke="white" stroke-width="4"/>
<path id="Ellipse 9_2" d="M560.92 333.328C557.276 332.23 554.865 327.491 556.463 322.191C558.06 316.89 562.688 314.272 566.332 315.371C569.976 316.469 572.386 321.208 570.789 326.508C569.191 331.809 564.564 334.426 560.92 333.328Z" stroke="white" stroke-width="4"/>
<path id="Ellipse 3_2" d="M432.434 247.073C424.652 244.728 420.142 235.649 422.903 226.485C425.665 217.32 434.442 212.246 442.224 214.591C450.006 216.936 454.517 226.015 451.755 235.18C448.993 244.344 440.217 249.419 432.434 247.073Z" stroke="white" stroke-width="4"/>
<path id="Ellipse 4_2" d="M438.752 134.107C430.97 131.762 426.46 122.683 429.221 113.519C431.983 104.354 440.76 99.2795 448.542 101.625C456.324 103.97 460.835 113.049 458.073 122.214C455.311 131.378 446.535 136.453 438.752 134.107Z" stroke="white" stroke-width="4"/>
<path id="Ellipse 5_2" d="M508.542 99.6855C500.759 97.3402 496.249 88.2614 499.011 79.0968C501.773 69.9323 510.549 64.8578 518.331 67.2031C526.113 69.5485 530.624 78.6273 527.862 87.7918C525.1 96.9564 516.324 102.031 508.542 99.6855Z" stroke="white" stroke-width="4"/>
</g>
<g id="logo-6">
<path id="Vector 3_3" d="M571.711 624.195C598.393 616.817 620.059 644.249 627.557 658.887C655.073 646.103 704.268 616.974 729.805 554.927C750.235 505.29 715.033 439.122 694.878 412.243C666.553 384.281 588.506 340.807 502.915 390.609C417.324 440.411 431.001 531.355 448.538 570.602C472.565 561.112 490.453 578.311 496.393 588.096C536.93 570.936 563.496 605.012 571.711 624.195Z" stroke="white" stroke-width="4"/>
<path id="Ellipse 1_3" d="M638.129 559.883C634.704 552.512 638.484 543.105 647.164 539.072C655.845 535.039 665.471 538.217 668.896 545.588C672.321 552.96 668.541 562.366 659.861 566.399C651.18 570.432 641.554 567.254 638.129 559.883Z" stroke="white" stroke-width="4"/>
<path id="Ellipse 2_3" d="M556.8 555.85C553.375 548.478 557.154 539.072 565.835 535.039C574.516 531.006 584.142 534.184 587.567 541.555C590.991 548.927 587.212 558.333 578.531 562.366C569.851 566.399 560.224 563.221 556.8 555.85Z" stroke="white" stroke-width="4"/>
<path id="Ellipse 6_3" d="M570.101 683.49C566.676 676.119 570.455 666.712 579.136 662.679C587.817 658.646 597.443 661.824 600.868 669.196C604.292 676.567 600.513 685.974 591.832 690.007C583.152 694.04 573.525 690.861 570.101 683.49Z" stroke="white" stroke-width="4"/>
<path id="Ellipse 7_3" d="M513.266 624.167C510.292 617.765 513.627 609.477 521.38 605.875C529.133 602.273 537.619 605.069 540.593 611.471C543.568 617.872 540.232 626.161 532.479 629.763C524.726 633.365 516.24 630.569 513.266 624.167Z" stroke="white" stroke-width="4"/>
<path id="Ellipse 8_3" d="M455.214 607.228C453.61 603.777 455.545 598.825 460.566 596.492C465.587 594.159 470.619 595.874 472.223 599.326C473.826 602.777 471.891 607.729 466.871 610.062C461.85 612.394 456.817 610.68 455.214 607.228Z" stroke="white" stroke-width="4"/>
<path id="Ellipse 9_3" d="M497.735 662.747C496.131 659.295 498.067 654.343 503.087 652.011C508.108 649.678 513.141 651.393 514.744 654.844C516.348 658.296 514.412 663.248 509.392 665.58C504.371 667.913 499.339 666.198 497.735 662.747Z" stroke="white" stroke-width="4"/>
<path id="Ellipse 3_3" d="M476.688 509.432C473.263 502.061 477.042 492.654 485.723 488.621C494.404 484.588 504.03 487.766 507.455 495.138C510.879 502.509 507.1 511.915 498.419 515.948C489.739 519.981 480.112 516.803 476.688 509.432Z" stroke="white" stroke-width="4"/>
<path id="Ellipse 4_3" d="M565.246 439.015C561.822 431.643 565.601 422.237 574.282 418.204C582.962 414.171 592.589 417.349 596.013 424.72C599.438 432.091 595.659 441.498 586.978 445.531C578.297 449.564 568.671 446.386 565.246 439.015Z" stroke="white" stroke-width="4"/>
<path id="Ellipse 5_3" d="M637.368 468.235C633.944 460.864 637.723 451.457 646.404 447.424C655.084 443.391 664.711 446.569 668.135 453.94C671.56 461.312 667.781 470.718 659.1 474.751C650.419 478.784 640.793 475.606 637.368 468.235Z" stroke="white" stroke-width="4"/>
</g>
<g id="logo-10">
<path id="Vector 3_4" d="M599.261 775.655C571.954 771.104 563.864 737.097 563.231 720.663C532.891 720.663 476.003 726.351 426.7 771.862C387.257 808.27 391.303 883.11 398.256 915.979C412.162 953.272 464.625 1025.58 563.231 1016.48C661.838 1007.38 687.753 919.139 688.385 876.157C662.596 874.64 653.62 851.505 652.356 840.128C608.363 838.611 598.629 796.514 599.261 775.655Z" stroke="white" stroke-width="4"/>
<path id="Ellipse 1_4" d="M511.929 805.995C511.929 814.123 504.538 821.061 494.966 821.061C485.394 821.061 478.003 814.123 478.003 805.995C478.003 797.867 485.394 790.928 494.966 790.928C504.538 790.928 511.929 797.867 511.929 805.995Z" stroke="white" stroke-width="4"/>
<path id="Ellipse 2_4" d="M583.987 843.92C583.987 852.048 576.596 858.987 567.024 858.987C557.453 858.987 550.062 852.048 550.062 843.92C550.062 835.792 557.453 828.854 567.024 828.854C576.596 828.854 583.987 835.792 583.987 843.92Z" stroke="white" stroke-width="4"/>
<path id="Ellipse 6_4" d="M625.705 722.559C625.705 730.687 618.314 737.625 608.742 737.625C599.171 737.625 591.78 730.687 591.78 722.559C591.78 714.431 599.171 707.493 608.742 707.493C618.314 707.493 625.705 714.431 625.705 722.559Z" stroke="white" stroke-width="4"/>
<path id="Ellipse 7_4" d="M652.253 800.306C652.253 807.365 645.735 813.476 637.186 813.476C628.638 813.476 622.12 807.365 622.12 800.306C622.12 793.247 628.638 787.136 637.186 787.136C645.735 787.136 652.253 793.247 652.253 800.306Z" stroke="white" stroke-width="4"/>
<path id="Ellipse 8_4" d="M697.763 840.128C697.763 843.934 693.922 847.609 688.386 847.609C682.85 847.609 679.008 843.934 679.008 840.128C679.008 836.322 682.85 832.647 688.386 832.647C693.922 832.647 697.763 836.322 697.763 840.128Z" stroke="white" stroke-width="4"/>
<path id="Ellipse 9_4" d="M682.593 771.862C682.593 775.668 678.752 779.344 673.216 779.344C667.68 779.344 663.838 775.668 663.838 771.862C663.838 768.056 667.68 764.381 673.216 764.381C678.752 764.381 682.593 768.056 682.593 771.862Z" stroke="white" stroke-width="4"/>
<path id="Ellipse 3_4" d="M637.083 919.772C637.083 927.9 629.692 934.838 620.12 934.838C610.548 934.838 603.157 927.9 603.157 919.772C603.157 911.644 610.548 904.705 620.12 904.705C629.692 904.705 637.083 911.644 637.083 919.772Z" stroke="white" stroke-width="4"/>
<path id="Ellipse 4_4" d="M527.099 946.319C527.099 954.447 519.708 961.386 510.136 961.386C500.564 961.386 493.173 954.447 493.173 946.319C493.173 938.191 500.564 931.253 510.136 931.253C519.708 931.253 527.099 938.191 527.099 946.319Z" stroke="white" stroke-width="4"/>
<path id="Ellipse 5_4" d="M474.003 889.431C474.003 897.559 466.612 904.498 457.04 904.498C447.469 904.498 440.078 897.559 440.078 889.431C440.078 881.303 447.469 874.365 457.04 874.365C466.612 874.365 474.003 881.303 474.003 889.431Z" stroke="white" stroke-width="4"/>
</g>
<g id="logo-8">
<path id="Vector 3_5" d="M1337.5 437.134C1310.19 432.583 1302.1 398.576 1301.47 382.142C1271.13 382.142 1214.24 387.83 1164.94 433.341C1125.49 469.749 1129.54 544.589 1136.49 577.458C1150.4 614.751 1202.86 687.062 1301.47 677.96C1400.07 668.858 1425.99 580.618 1426.62 537.636C1400.83 536.119 1391.86 512.984 1390.59 501.607C1346.6 500.09 1336.87 457.993 1337.5 437.134Z" stroke="white" stroke-width="4"/>
<path id="Ellipse 1_5" d="M1250.17 467.474C1250.17 475.602 1242.77 482.54 1233.2 482.54C1223.63 482.54 1216.24 475.602 1216.24 467.474C1216.24 459.346 1223.63 452.408 1233.2 452.408C1242.77 452.408 1250.17 459.346 1250.17 467.474Z" stroke="white" stroke-width="4"/>
<path id="Ellipse 2_5" d="M1322.22 505.399C1322.22 513.527 1314.83 520.466 1305.26 520.466C1295.69 520.466 1288.3 513.527 1288.3 505.399C1288.3 497.271 1295.69 490.333 1305.26 490.333C1314.83 490.333 1322.22 497.271 1322.22 505.399Z" stroke="white" stroke-width="4"/>
<path id="Ellipse 6_5" d="M1363.94 384.038C1363.94 392.166 1356.55 399.104 1346.98 399.104C1337.41 399.104 1330.02 392.166 1330.02 384.038C1330.02 375.91 1337.41 368.972 1346.98 368.972C1356.55 368.972 1363.94 375.91 1363.94 384.038Z" stroke="white" stroke-width="4"/>
<path id="Ellipse 7_5" d="M1390.49 461.785C1390.49 468.844 1383.97 474.955 1375.42 474.955C1366.87 474.955 1360.36 468.844 1360.36 461.785C1360.36 454.726 1366.87 448.615 1375.42 448.615C1383.97 448.615 1390.49 454.726 1390.49 461.785Z" stroke="white" stroke-width="4"/>
<path id="Ellipse 8_5" d="M1436 501.607C1436 505.413 1432.16 509.088 1426.62 509.088C1421.09 509.088 1417.24 505.413 1417.24 501.607C1417.24 497.801 1421.09 494.126 1426.62 494.126C1432.16 494.126 1436 497.801 1436 501.607Z" stroke="white" stroke-width="4"/>
<path id="Ellipse 9_5" d="M1420.83 433.341C1420.83 437.147 1416.99 440.823 1411.45 440.823C1405.92 440.823 1402.07 437.147 1402.07 433.341C1402.07 429.535 1405.92 425.86 1411.45 425.86C1416.99 425.86 1420.83 429.535 1420.83 433.341Z" stroke="white" stroke-width="4"/>
<path id="Ellipse 3_5" d="M1375.32 581.251C1375.32 589.379 1367.93 596.317 1358.36 596.317C1348.78 596.317 1341.39 589.379 1341.39 581.251C1341.39 573.123 1348.78 566.184 1358.36 566.184C1367.93 566.184 1375.32 573.123 1375.32 581.251Z" stroke="white" stroke-width="4"/>
<path id="Ellipse 4_5" d="M1265.34 607.798C1265.34 615.926 1257.94 622.865 1248.37 622.865C1238.8 622.865 1231.41 615.926 1231.41 607.798C1231.41 599.67 1238.8 592.732 1248.37 592.732C1257.94 592.732 1265.34 599.67 1265.34 607.798Z" stroke="white" stroke-width="4"/>
<path id="Ellipse 5_5" d="M1212.24 550.91C1212.24 559.038 1204.85 565.977 1195.28 565.977C1185.71 565.977 1178.31 559.038 1178.31 550.91C1178.31 542.782 1185.71 535.844 1195.28 535.844C1204.85 535.844 1212.24 542.782 1212.24 550.91Z" stroke="white" stroke-width="4"/>
</g>
<g id="logo-11">
<path id="Vector 3_6" d="M868.723 729.541C849.274 749.24 816.815 736.266 803.017 727.316C785.541 752.118 757.422 801.897 766.225 868.414C773.267 921.628 836.774 961.43 867.647 974.679C906.142 984.793 995.472 983.56 1044.83 897.713C1094.19 811.865 1036.99 739.853 1002.22 714.578C986.12 734.785 962.039 728.797 952.01 723.276C925.429 758.364 885.41 742.073 868.723 729.541Z" stroke="white" stroke-width="4"/>
<path id="Ellipse 1_6" d="M843.22 818.406C849.864 823.088 851.278 833.126 845.765 840.95C840.251 848.775 830.322 850.82 823.678 846.138C817.034 841.456 815.62 831.417 821.133 823.593C826.646 815.769 836.576 813.724 843.22 818.406Z" stroke="white" stroke-width="4"/>
<path id="Ellipse 2_6" d="M915.728 781.348C922.372 786.03 923.787 796.069 918.273 803.893C912.76 811.717 902.831 813.762 896.187 809.08C889.542 804.398 888.128 794.36 893.642 786.536C899.155 778.711 909.084 776.666 915.728 781.348Z" stroke="white" stroke-width="4"/>
<path id="Ellipse 6_6" d="M840.553 677.34C847.197 682.022 848.612 692.06 843.098 699.885C837.585 707.709 827.656 709.754 821.012 705.072C814.367 700.39 812.953 690.352 818.467 682.528C823.98 674.703 833.909 672.658 840.553 677.34Z" stroke="white" stroke-width="4"/>
<path id="Ellipse 7_6" d="M919.399 700.423C925.169 704.489 926.41 713.337 921.486 720.325C916.562 727.313 907.812 729.12 902.042 725.054C896.272 720.988 895.03 712.14 899.954 705.152C904.879 698.164 913.629 696.357 919.399 700.423Z" stroke="white" stroke-width="4"/>
<path id="Ellipse 8_6" d="M978.165 686.159C981.277 688.351 982.068 693.608 978.879 698.134C975.69 702.659 970.473 703.682 967.362 701.49C964.251 699.298 963.459 694.04 966.648 689.515C969.837 684.99 975.054 683.967 978.165 686.159Z" stroke="white" stroke-width="4"/>
<path id="Ellipse 9_6" d="M913.624 659.237C916.735 661.429 917.527 666.687 914.338 671.212C911.149 675.738 905.932 676.761 902.821 674.568C899.71 672.376 898.918 667.119 902.107 662.593C905.296 658.068 910.513 657.045 913.624 659.237Z" stroke="white" stroke-width="4"/>
<path id="Ellipse 3_6" d="M1008.32 781.638C1014.96 786.319 1016.37 796.358 1010.86 804.182C1005.35 812.006 995.418 814.051 988.774 809.37C982.13 804.688 980.716 794.649 986.229 786.825C991.743 779.001 1001.67 776.956 1008.32 781.638Z" stroke="white" stroke-width="4"/>
<path id="Ellipse 4_6" d="M966.664 886.834C973.308 891.516 974.723 901.555 969.209 909.379C963.696 917.203 953.767 919.248 947.123 914.566C940.478 909.885 939.064 899.846 944.577 892.022C950.091 884.198 960.02 882.153 966.664 886.834Z" stroke="white" stroke-width="4"/>
<path id="Ellipse 5_6" d="M889.578 897.468C896.222 902.15 897.636 912.189 892.123 920.013C886.609 927.837 876.68 929.882 870.036 925.2C863.392 920.518 861.978 910.48 867.491 902.656C873.004 894.831 882.934 892.786 889.578 897.468Z" stroke="white" stroke-width="4"/>
</g>
<g id="logo-5">
<path id="Vector 3_7" d="M193.723 441.541C174.274 461.24 141.815 448.266 128.017 439.316C110.541 464.117 82.4223 513.897 91.2249 580.414C98.2669 633.627 161.774 673.43 192.647 686.679C231.142 696.793 320.472 695.56 369.83 609.713C419.189 523.865 361.986 451.853 327.215 426.578C311.12 446.785 287.039 440.796 277.01 435.276C250.429 470.364 210.41 454.073 193.723 441.541Z" stroke="white" stroke-width="4"/>
<path id="Ellipse 1_7" d="M168.22 530.406C174.864 535.088 176.278 545.126 170.765 552.95C165.251 560.775 155.322 562.82 148.678 558.138C142.034 553.456 140.619 543.417 146.133 535.593C151.646 527.769 161.576 525.724 168.22 530.406Z" stroke="white" stroke-width="4"/>
<path id="Ellipse 2_7" d="M240.728 493.348C247.372 498.03 248.787 508.069 243.273 515.893C237.76 523.717 227.831 525.762 221.187 521.08C214.542 516.398 213.128 506.36 218.642 498.536C224.155 490.712 234.084 488.666 240.728 493.348Z" stroke="white" stroke-width="4"/>
<path id="Ellipse 6_7" d="M165.553 389.34C172.197 394.022 173.612 404.06 168.098 411.885C162.585 419.709 152.656 421.754 146.012 417.072C139.367 412.39 137.953 402.352 143.466 394.528C148.98 386.703 158.909 384.658 165.553 389.34Z" stroke="white" stroke-width="4"/>
<path id="Ellipse 7_7" d="M244.399 412.423C250.169 416.489 251.41 425.337 246.486 432.325C241.562 439.313 232.812 441.12 227.042 437.054C221.272 432.988 220.03 424.14 224.954 417.152C229.879 410.164 238.629 408.357 244.399 412.423Z" stroke="white" stroke-width="4"/>
<path id="Ellipse 8_7" d="M303.165 398.159C306.277 400.351 307.068 405.608 303.879 410.134C300.69 414.659 295.473 415.682 292.362 413.49C289.251 411.298 288.459 406.04 291.648 401.515C294.837 396.99 300.054 395.967 303.165 398.159Z" stroke="white" stroke-width="4"/>
<path id="Ellipse 9_7" d="M238.624 371.237C241.735 373.429 242.527 378.687 239.338 383.212C236.149 387.738 230.932 388.761 227.821 386.568C224.71 384.376 223.918 379.119 227.107 374.593C230.296 370.068 235.513 369.045 238.624 371.237Z" stroke="white" stroke-width="4"/>
<path id="Ellipse 3_7" d="M333.316 493.638C339.96 498.319 341.374 508.358 335.861 516.182C330.347 524.006 320.418 526.051 313.774 521.369C307.13 516.688 305.716 506.649 311.229 498.825C316.743 491.001 326.672 488.956 333.316 493.638Z" stroke="white" stroke-width="4"/>
<path id="Ellipse 4_7" d="M291.664 598.834C298.308 603.516 299.723 613.555 294.209 621.379C288.696 629.203 278.767 631.248 272.123 626.566C265.478 621.885 264.064 611.846 269.577 604.022C275.091 596.198 285.02 594.153 291.664 598.834Z" stroke="white" stroke-width="4"/>
<path id="Ellipse 5_7" d="M214.578 609.468C221.222 614.15 222.636 624.189 217.123 632.013C211.609 639.837 201.68 641.882 195.036 637.2C188.392 632.518 186.978 622.48 192.491 614.656C198.004 606.831 207.934 604.786 214.578 609.468Z" stroke="white" stroke-width="4"/>
</g>
<g id="logo-7">
<path id="Vector 3_8" d="M856.103 412.218C846.835 438.304 811.937 440.307 795.646 438.048C790.327 467.919 785.954 524.923 822.116 581.442C851.045 626.656 925.435 635.794 959.014 634.712C998.167 627.559 1078.56 588.586 1086.88 489.911C1095.21 391.236 1012.88 350.252 970.674 342.094C964.659 367.218 940.309 371.999 928.886 371.248C919.68 414.295 876.528 416.498 856.103 412.218Z" stroke="white" stroke-width="4"/>
<path id="Ellipse 1_8" d="M870.662 503.517C878.665 504.942 884.2 513.435 882.522 522.858C880.844 532.282 872.717 538.342 864.715 536.917C856.713 535.492 851.177 526.999 852.855 517.576C854.534 508.152 862.66 502.092 870.662 503.517Z" stroke="white" stroke-width="4"/>
<path id="Ellipse 2_8" d="M920.634 439.224C928.636 440.649 934.171 449.142 932.493 458.565C930.815 467.989 922.688 474.049 914.686 472.624C906.684 471.199 901.149 462.706 902.827 453.282C904.505 443.859 912.632 437.799 920.634 439.224Z" stroke="white" stroke-width="4"/>
<path id="Ellipse 6_8" d="M808.466 376.875C816.468 378.3 822.003 386.793 820.325 396.216C818.647 405.64 810.52 411.7 802.518 410.275C794.516 408.85 788.981 400.357 790.659 390.934C792.337 381.51 800.464 375.45 808.466 376.875Z" stroke="white" stroke-width="4"/>
<path id="Ellipse 7_8" d="M889.663 364.369C896.613 365.606 901.487 373.094 899.988 381.511C898.489 389.927 891.33 395.272 884.38 394.035C877.431 392.797 872.557 385.309 874.056 376.893C875.554 368.476 882.714 363.131 889.663 364.369Z" stroke="white" stroke-width="4"/>
<path id="Ellipse 8_8" d="M936.847 326.545C940.594 327.212 943.539 331.638 942.569 337.089C941.598 342.539 937.306 345.677 933.559 345.01C929.812 344.342 926.867 339.916 927.838 334.466C928.808 329.015 933.1 325.877 936.847 326.545Z" stroke="white" stroke-width="4"/>
<path id="Ellipse 9_8" d="M866.979 329.512C870.726 330.179 873.671 334.605 872.701 340.056C871.73 345.506 867.438 348.644 863.691 347.976C859.944 347.309 856.999 342.883 857.97 337.432C858.94 331.982 863.232 328.844 866.979 329.512Z" stroke="white" stroke-width="4"/>
<path id="Ellipse 3_8" d="M1004.62 400.249C1012.62 401.674 1018.16 410.167 1016.48 419.59C1014.8 429.014 1006.67 435.074 998.671 433.649C990.669 432.224 985.134 423.731 986.812 414.307C988.49 404.884 996.617 398.824 1004.62 400.249Z" stroke="white" stroke-width="4"/>
<path id="Ellipse 4_8" d="M1011.47 513.183C1019.47 514.608 1025.01 523.101 1023.33 532.525C1021.65 541.948 1013.53 548.008 1005.53 546.583C997.523 545.158 991.988 536.665 993.666 527.242C995.344 517.819 1003.47 511.758 1011.47 513.183Z" stroke="white" stroke-width="4"/>
<path id="Ellipse 5_8" d="M946.157 555.483C954.159 556.908 959.695 565.401 958.016 574.825C956.338 584.248 948.212 590.308 940.209 588.883C932.207 587.458 926.672 578.965 928.35 569.542C930.028 560.118 938.155 554.058 946.157 555.483Z" stroke="white" stroke-width="4"/>
</g>
<g id="logo-9">
<path id="Vector 3_9" d="M73.8993 888.372C91.5525 909.696 75.3929 940.693 65.1064 953.525C88.0333 973.398 134.747 1006.36 201.811 1004.26C255.462 1002.58 301.423 943.381 317.698 913.989C331.616 876.701 339.334 787.696 258.86 729.99C178.387 672.283 101.009 721.988 72.3787 754.053C90.8728 772.091 82.5027 795.451 76.0059 804.877C108.256 834.838 88.0391 873.024 73.8993 888.372Z" stroke="white" stroke-width="4"/>
<path id="Ellipse 1_9" d="M159.764 922.646C165.088 916.504 175.217 916.102 182.45 922.371C189.683 928.64 190.723 938.724 185.4 944.866C180.076 951.008 169.947 951.41 162.714 945.141C155.481 938.872 154.44 928.788 159.764 922.646Z" stroke="white" stroke-width="4"/>
<path id="Ellipse 2_9" d="M130.153 846.791C135.477 840.649 145.606 840.247 152.839 846.516C160.072 852.785 161.113 862.87 155.789 869.011C150.465 875.153 140.336 875.555 133.103 869.286C125.87 863.017 124.83 852.933 130.153 846.791Z" stroke="white" stroke-width="4"/>
<path id="Ellipse 6_9" d="M19.1404 911.174C24.464 905.032 34.5936 904.63 41.8264 910.899C49.0593 917.168 50.0998 927.252 44.7762 933.394C39.4526 939.536 29.323 939.938 22.0901 933.669C14.8573 927.4 13.8168 917.316 19.1404 911.174Z" stroke="white" stroke-width="4"/>
<path id="Ellipse 7_9" d="M50.0018 835.036C54.6251 829.702 63.5529 829.352 70.0129 834.952C76.473 840.551 77.3951 849.438 72.7718 854.772C68.1485 860.106 59.2207 860.455 52.7607 854.856C46.3006 849.257 45.3785 840.37 50.0018 835.036Z" stroke="white" stroke-width="4"/>
<path id="Ellipse 8_9" d="M41.6942 775.136C44.1869 772.26 49.4972 771.999 53.6805 775.625C57.8638 779.251 58.3594 784.544 55.8666 787.42C53.3738 790.296 48.0636 790.557 43.8803 786.932C39.697 783.306 39.2014 778.012 41.6942 775.136Z" stroke="white" stroke-width="4"/>
<path id="Ellipse 9_9" d="M8.44508 836.657C10.9379 833.781 16.2481 833.52 20.4314 837.146C24.6147 840.772 25.1103 846.066 22.6175 848.941C20.1247 851.817 14.8145 852.079 10.6312 848.453C6.44788 844.827 5.95231 839.533 8.44508 836.657Z" stroke="white" stroke-width="4"/>
<path id="Ellipse 3_9" d="M139.712 754.698C145.036 748.556 155.165 748.154 162.398 754.423C169.631 760.692 170.672 770.776 165.348 776.918C160.024 783.06 149.895 783.462 142.662 777.193C135.429 770.924 134.388 760.84 139.712 754.698Z" stroke="white" stroke-width="4"/>
<path id="Ellipse 4_9" d="M240.21 806.674C245.533 800.532 255.663 800.13 262.896 806.399C270.128 812.668 271.169 822.752 265.845 828.894C260.522 835.036 250.392 835.438 243.159 829.169C235.926 822.9 234.886 812.816 240.21 806.674Z" stroke="white" stroke-width="4"/>
<path id="Ellipse 5_9" d="M243.071 884.438C248.395 878.296 258.524 877.894 265.757 884.163C272.99 890.432 274.03 900.516 268.707 906.658C263.383 912.8 253.254 913.202 246.021 906.933C238.788 900.664 237.747 890.579 243.071 884.438Z" stroke="white" stroke-width="4"/>
</g>
<g id="logo-4">
<path id="Vector 3_10" d="M1207.95 281.674C1234.63 274.296 1256.3 301.728 1263.79 316.366C1291.31 303.582 1340.5 274.453 1366.04 212.406C1386.47 162.768 1351.27 96.601 1331.11 69.7219C1302.79 41.7598 1224.74 -1.71404 1139.15 48.0879C1053.56 97.8899 1067.24 188.834 1084.77 228.081C1108.8 218.591 1126.69 235.789 1132.63 245.575C1173.17 228.415 1199.73 262.491 1207.95 281.674Z" stroke="white" stroke-width="4"/>
<path id="Ellipse 1_10" d="M1274.37 217.362C1270.94 209.991 1274.72 200.584 1283.4 196.551C1292.08 192.518 1301.71 195.696 1305.13 203.067C1308.56 210.439 1304.78 219.845 1296.1 223.878C1287.42 227.911 1277.79 224.733 1274.37 217.362Z" stroke="white" stroke-width="4"/>
<path id="Ellipse 2_10" d="M1193.04 213.329C1189.61 205.957 1193.39 196.551 1202.07 192.518C1210.75 188.485 1220.38 191.663 1223.8 199.034C1227.23 206.406 1223.45 215.812 1214.77 219.845C1206.09 223.878 1196.46 220.7 1193.04 213.329Z" stroke="white" stroke-width="4"/>
<path id="Ellipse 6_10" d="M1206.34 340.969C1202.91 333.598 1206.69 324.191 1215.37 320.158C1224.05 316.125 1233.68 319.303 1237.1 326.675C1240.53 334.046 1236.75 343.453 1228.07 347.486C1219.39 351.519 1209.76 348.34 1206.34 340.969Z" stroke="white" stroke-width="4"/>
<path id="Ellipse 7_10" d="M1149.5 281.646C1146.53 275.244 1149.86 266.956 1157.62 263.354C1165.37 259.752 1173.86 262.548 1176.83 268.95C1179.8 275.351 1176.47 283.64 1168.72 287.242C1160.96 290.844 1152.48 288.048 1149.5 281.646Z" stroke="white" stroke-width="4"/>
<path id="Ellipse 8_10" d="M1091.45 264.707C1089.85 261.256 1091.78 256.304 1096.8 253.971C1101.82 251.638 1106.86 253.353 1108.46 256.805C1110.06 260.256 1108.13 265.208 1103.11 267.541C1098.09 269.873 1093.05 268.159 1091.45 264.707Z" stroke="white" stroke-width="4"/>
<path id="Ellipse 9_10" d="M1133.97 320.226C1132.37 316.774 1134.3 311.822 1139.32 309.49C1144.34 307.157 1149.38 308.872 1150.98 312.323C1152.58 315.775 1150.65 320.727 1145.63 323.059C1140.61 325.392 1135.57 323.677 1133.97 320.226Z" stroke="white" stroke-width="4"/>
<path id="Ellipse 3_10" d="M1112.92 166.911C1109.5 159.54 1113.28 150.133 1121.96 146.1C1130.64 142.067 1140.27 145.245 1143.69 152.617C1147.12 159.988 1143.34 169.394 1134.66 173.427C1125.98 177.46 1116.35 174.282 1112.92 166.911Z" stroke="white" stroke-width="4"/>
<path id="Ellipse 4_10" d="M1201.48 96.4936C1198.06 89.1223 1201.84 79.7156 1210.52 75.6826C1219.2 71.6496 1228.83 74.828 1232.25 82.1992C1235.67 89.5705 1231.9 98.9772 1223.21 103.01C1214.53 107.043 1204.91 103.865 1201.48 96.4936Z" stroke="white" stroke-width="4"/>
<path id="Ellipse 5_10" d="M1273.6 125.714C1270.18 118.343 1273.96 108.936 1282.64 104.903C1291.32 100.87 1300.95 104.048 1304.37 111.419C1307.8 118.791 1304.02 128.197 1295.34 132.23C1286.66 136.263 1277.03 133.085 1273.6 125.714Z" stroke="white" stroke-width="4"/>
</g>
<g id="logo-3">
<path id="Vector 3_11" d="M879.542 259.822C900.614 241.869 931.836 257.588 944.813 267.691C964.358 244.485 996.655 197.309 993.607 130.281C991.168 76.6592 931.321 31.5415 901.702 15.6855C864.22 2.29711 775.115 -4.15887 718.554 77.1242C661.994 158.407 712.79 235.073 745.258 263.246C763.032 244.498 786.508 252.536 796.025 258.899C825.526 226.228 863.995 245.901 879.542 259.822Z" stroke="white" stroke-width="4"/>
<path id="Ellipse 1_11" d="M912.595 173.481C906.379 168.245 905.833 158.122 911.999 150.801C918.165 143.48 928.234 142.296 934.45 147.533C940.667 152.769 941.213 162.891 935.047 170.212C928.88 177.533 918.812 178.717 912.595 173.481Z" stroke="white" stroke-width="4"/>
<path id="Ellipse 2_11" d="M837.168 204.163C830.951 198.927 830.405 188.804 836.572 181.483C842.738 174.162 852.806 172.979 859.023 178.215C865.239 183.451 865.785 193.574 859.619 200.895C853.453 208.216 843.385 209.399 837.168 204.163Z" stroke="white" stroke-width="4"/>
<path id="Ellipse 6_11" d="M903.117 314.253C896.9 309.017 896.355 298.894 902.521 291.573C908.687 284.252 918.755 283.069 924.972 288.305C931.189 293.541 931.734 303.663 925.568 310.984C919.402 318.305 909.334 319.489 903.117 314.253Z" stroke="white" stroke-width="4"/>
<path id="Ellipse 7_11" d="M826.549 284.473C821.15 279.926 820.675 271.004 826.182 264.465C831.689 257.927 840.562 256.879 845.961 261.426C851.36 265.973 851.836 274.895 846.328 281.434C840.821 287.972 831.948 289.02 826.549 284.473Z" stroke="white" stroke-width="4"/>
<path id="Ellipse 8_11" d="M766.773 293.629C763.863 291.177 763.526 285.871 767.092 281.637C770.659 277.402 775.945 276.832 778.856 279.284C781.767 281.735 782.103 287.041 778.537 291.276C774.97 295.51 769.684 296.081 766.773 293.629Z" stroke="white" stroke-width="4"/>
<path id="Ellipse 9_11" d="M828.76 326.003C825.849 323.551 825.512 318.245 829.079 314.011C832.645 309.776 837.931 309.206 840.842 311.658C843.753 314.109 844.089 319.415 840.523 323.65C836.957 327.884 831.671 328.455 828.76 326.003Z" stroke="white" stroke-width="4"/>
<path id="Ellipse 3_11" d="M744.948 195.91C738.732 190.674 738.186 180.551 744.352 173.23C750.518 165.909 760.586 164.726 766.803 169.962C773.02 175.198 773.566 185.321 767.399 192.642C761.233 199.963 751.165 201.146 744.948 195.91Z" stroke="white" stroke-width="4"/>
<path id="Ellipse 4_11" d="M795.495 94.6864C789.278 89.4503 788.733 79.3275 794.899 72.0065C801.065 64.6856 811.133 63.5023 817.35 68.7383C823.567 73.9744 824.112 84.0972 817.946 91.4182C811.78 98.7392 801.712 99.9225 795.495 94.6864Z" stroke="white" stroke-width="4"/>
<path id="Ellipse 5_11" d="M873.211 90.7233C866.994 85.4872 866.448 75.3644 872.614 68.0434C878.78 60.7225 888.849 59.5392 895.065 64.7752C901.282 70.0113 901.828 80.1341 895.662 87.4551C889.496 94.776 879.427 95.9594 873.211 90.7233Z" stroke="white" stroke-width="4"/>
</g>
<g id="logo-1">
<path id="Vector 3_12" d="M74.4542 133.796C80.7698 160.749 52.5018 181.311 37.5783 188.223C49.2624 216.224 76.42 266.534 137.407 294.508C186.197 316.888 253.707 284.334 281.363 265.26C310.425 238.064 356.955 161.8 310.582 74.3042C264.209 -13.1919 172.794 -3.12779 132.884 12.8412C141.415 37.2257 123.521 54.4183 113.508 59.9665C129.05 101.151 93.9479 126.346 74.4542 133.796Z" stroke="white" stroke-width="4"/>
<path id="Ellipse 1_12" d="M136.086 202.708C143.587 199.578 152.837 203.727 156.523 212.561C160.209 221.394 156.652 230.887 149.151 234.017C141.65 237.147 132.4 232.998 128.714 224.165C125.028 215.331 128.585 205.838 136.086 202.708Z" stroke="white" stroke-width="4"/>
<path id="Ellipse 2_12" d="M143.337 121.602C150.838 118.472 160.088 122.621 163.774 131.455C167.46 140.288 163.903 149.781 156.402 152.911C148.901 156.041 139.651 151.892 135.965 143.059C132.279 134.225 135.836 124.732 143.337 121.602Z" stroke="white" stroke-width="4"/>
<path id="Ellipse 6_12" d="M15.27 129.838C22.7711 126.708 32.0207 130.857 35.7068 139.69C39.3928 148.524 35.8357 158.017 28.3346 161.147C20.8335 164.277 11.5839 160.128 7.89785 151.294C4.21181 142.461 7.76889 132.968 15.27 129.838Z" stroke="white" stroke-width="4"/>
<path id="Ellipse 7_12" d="M76.7974 75.3971C83.3117 72.6788 91.4617 76.3402 94.7539 84.2298C98.0461 92.1194 94.9158 100.488 88.4015 103.206C81.8872 105.924 73.7372 102.263 70.445 94.3734C67.1528 86.4838 70.283 78.1154 76.7974 75.3971Z" stroke="white" stroke-width="4"/>
<path id="Ellipse 8_12" d="M96.022 18.0613C99.5344 16.5957 104.406 18.7256 106.538 23.8347C108.67 28.9437 106.757 33.9045 103.245 35.3701C99.7323 36.8358 94.8609 34.7059 92.729 29.5968C90.597 24.4877 92.5096 19.527 96.022 18.0613Z" stroke="white" stroke-width="4"/>
<path id="Ellipse 9_12" d="M38.8631 58.3505C42.3755 56.8849 47.2469 59.0148 49.3788 64.1238C51.5107 69.2329 49.5981 74.1937 46.0858 75.6593C42.5734 77.1249 37.702 74.9951 35.5701 69.886C33.4382 64.7769 35.3508 59.8162 38.8631 58.3505Z" stroke="white" stroke-width="4"/>
<path id="Ellipse 3_12" d="M192.891 43.3915C200.392 40.2614 209.642 44.4105 213.328 53.2439C217.014 62.0774 213.457 71.5704 205.956 74.7005C198.455 77.8306 189.205 73.6815 185.519 64.8481C181.833 56.0146 185.39 46.5216 192.891 43.3915Z" stroke="white" stroke-width="4"/>
<path id="Ellipse 4_12" d="M259.746 134.67C267.247 131.539 276.497 135.688 280.183 144.522C283.869 153.355 280.312 162.848 272.811 165.978C265.309 169.109 256.06 164.96 252.374 156.126C248.688 147.293 252.245 137.8 259.746 134.67Z" stroke="white" stroke-width="4"/>
<path id="Ellipse 5_12" d="M227.692 205.578C235.193 202.448 244.443 206.597 248.129 215.43C251.815 224.264 248.258 233.757 240.757 236.887C233.256 240.017 224.006 235.868 220.32 227.034C216.634 218.201 220.191 208.708 227.692 205.578Z" stroke="white" stroke-width="4"/>
</g>
</g>
<defs>
<clipPath id="clip0_9:2">
<rect width="1440" height="1024" fill="white"/>
</clipPath>
</defs>
</svg>
