<svg fill="none" xmlns="http://www.w3.org/2000/svg" viewBox="0 0 1440 1024">
  <g id="Desktop - 1" clip-path="url(#clip0_9:2)">
    <path fill="#fff" d="M0 0h1440v1024H0z"/>
    <path id="background" fill="#BCAAFF" stroke="#000" d="M-1.5.5h1439v1023H-1.5z"/>
    <g id="logo-12" stroke="#fff" stroke-width="4">
      <path id="Vector 3" d="M1290.26 931.967c12.23-24.832 47.13-22.766 63.05-18.629 8.75-29.05 19.72-85.159-9.63-145.497-23.48-48.271-96.3-65.993-129.78-68.82-39.72 2.553-124.09 31.919-143.83 128.957-19.74 97.039 57.27 147.314 98.24 160.322 8.9-24.254 33.64-26.173 44.89-24.1 14.15-41.685 57.27-38.857 77.06-32.233Z"/>
      <path id="Ellipse 1" d="M1286.41 839.595c-7.79-2.346-12.3-11.424-9.53-20.589 2.76-9.164 11.53-14.239 19.32-11.894 7.78 2.346 12.29 11.425 9.53 20.589-2.77 9.165-11.54 14.239-19.32 11.894Z"/>
      <path id="Ellipse 2" d="M1229.3 897.644c-7.78-2.345-12.29-11.424-9.53-20.588 2.76-9.165 11.54-14.239 19.32-11.894 7.78 2.345 12.29 11.424 9.53 20.589-2.76 9.164-11.54 14.239-19.32 11.893Z"/>
      <path id="Ellipse 6" d="M1333.46 972.607c-7.78-2.345-12.29-11.424-9.53-20.588 2.76-9.165 11.54-14.239 19.32-11.894 7.78 2.345 12.29 11.424 9.53 20.589-2.76 9.164-11.54 14.239-19.32 11.893Z"/>
      <path id="Ellipse 7" d="M1251.36 975.592c-6.76-2.037-10.73-10.041-8.26-18.226 2.47-8.186 10.2-12.662 16.96-10.626 6.76 2.037 10.73 10.041 8.26 18.226-2.47 8.186-10.2 12.662-16.96 10.626Z"/>
      <path id="Ellipse 8" d="M1200.1 1007.68c-3.64-1.1-6.05-5.84-4.46-11.142 1.6-5.301 6.23-7.918 9.87-6.82 3.65 1.098 6.06 5.837 4.46 11.142-1.6 5.3-6.22 7.91-9.87 6.82Z"/>
      <path id="Ellipse 9" d="M1269.84 1012.85c-3.64-1.1-6.05-5.84-4.46-11.14 1.6-5.299 6.23-7.917 9.87-6.818 3.65 1.098 6.06 5.838 4.46 11.138-1.6 5.3-6.22 7.92-9.87 6.82Z"/>
      <path id="Ellipse 3" d="M1141.36 926.594c-7.79-2.345-12.3-11.424-9.54-20.588 2.77-9.165 11.54-14.239 19.33-11.894 7.78 2.345 12.29 11.424 9.53 20.589-2.77 9.164-11.54 14.239-19.32 11.893Z"/>
      <path id="Ellipse 4" d="M1147.67 813.628c-7.78-2.345-12.29-11.424-9.53-20.588 2.76-9.165 11.54-14.239 19.32-11.894 7.79 2.345 12.3 11.424 9.53 20.589-2.76 9.164-11.53 14.239-19.32 11.893Z"/>
      <path id="Ellipse 5" d="M1217.46 779.207c-7.78-2.346-12.29-11.425-9.53-20.589 2.76-9.165 11.54-14.239 19.32-11.894 7.78 2.346 12.3 11.424 9.53 20.589-2.76 9.164-11.53 14.239-19.32 11.894Z"/>
    </g>
    <g id="logo-2" stroke="#fff" stroke-width="4">
      <path id="Vector 3_2" d="M581.335 252.446c12.237-24.832 47.131-22.766 63.049-18.629 8.755-29.049 19.723-85.159-9.625-145.497-23.478-48.271-96.301-65.993-129.778-68.82-39.72 2.553-124.094 31.92-143.832 128.957-19.739 97.039 57.269 147.314 98.241 160.322 8.894-24.254 33.635-26.173 44.893-24.1 14.147-41.685 57.262-38.857 77.052-32.233Z"/>
      <path id="Ellipse 1_2" d="M577.485 160.074c-7.782-2.346-12.293-11.424-9.531-20.589 2.762-9.164 11.538-14.239 19.32-11.894 7.783 2.346 12.293 11.425 9.531 20.589-2.762 9.165-11.538 14.239-19.32 11.894Z"/>
      <path id="Ellipse 2_2" d="M520.38 218.123c-7.782-2.345-12.293-11.424-9.531-20.588 2.762-9.165 11.538-14.239 19.32-11.894 7.783 2.345 12.293 11.424 9.531 20.589-2.762 9.164-11.538 14.239-19.32 11.893Z"/>
      <path id="Ellipse 6_2" d="M624.541 293.086c-7.782-2.345-12.293-11.424-9.531-20.588 2.762-9.165 11.538-14.239 19.321-11.894 7.782 2.345 12.292 11.424 9.53 20.589-2.762 9.164-11.538 14.239-19.32 11.893Z"/>
      <path id="Ellipse 7_2" d="M542.441 296.071c-6.759-2.037-10.73-10.041-8.263-18.226 2.467-8.185 10.199-12.662 16.958-10.625 6.758 2.036 10.729 10.04 8.262 18.225-2.467 8.186-10.199 12.663-16.957 10.626Z"/>
      <path id="Ellipse 8_2" d="M491.18 328.154c-3.644-1.098-6.054-5.837-4.457-11.137 1.598-5.301 6.225-7.918 9.869-6.82 3.644 1.098 6.055 5.837 4.457 11.138-1.597 5.3-6.225 7.918-9.869 6.819Z"/>
      <path id="Ellipse 9_2" d="M560.92 333.328c-3.644-1.098-6.055-5.837-4.457-11.137 1.597-5.301 6.225-7.919 9.869-6.82 3.644 1.098 6.054 5.837 4.457 11.137-1.598 5.301-6.225 7.918-9.869 6.82Z"/>
      <path id="Ellipse 3_2" d="M432.434 247.073c-7.782-2.345-12.292-11.424-9.531-20.588 2.762-9.165 11.539-14.239 19.321-11.894 7.782 2.345 12.293 11.424 9.531 20.589-2.762 9.164-11.538 14.239-19.321 11.893Z"/>
      <path id="Ellipse 4_2" d="M438.752 134.107c-7.782-2.345-12.292-11.424-9.531-20.588 2.762-9.165 11.539-14.24 19.321-11.894 7.782 2.345 12.293 11.424 9.531 20.589-2.762 9.164-11.538 14.239-19.321 11.893Z"/>
      <path id="Ellipse 5_2" d="M508.542 99.686c-7.783-2.346-12.293-11.425-9.531-20.59 2.762-9.164 11.538-14.238 19.32-11.893 7.782 2.346 12.293 11.424 9.531 20.589-2.762 9.164-11.538 14.239-19.32 11.894Z"/>
    </g>
    <g id="logo-6" stroke="#fff" stroke-width="4">
      <path id="Vector 3_3" d="M571.711 624.195c26.682-7.378 48.348 20.054 55.846 34.692 27.516-12.784 76.711-41.913 102.248-103.96 20.43-49.637-14.772-115.805-34.927-142.684-28.325-27.962-106.372-71.436-191.963-21.634-85.591 49.802-71.914 140.746-54.377 179.993 24.027-9.49 41.915 7.709 47.855 17.494 40.537-17.16 67.103 16.916 75.318 36.099Z"/>
      <path id="Ellipse 1_3" d="M638.129 559.883c-3.425-7.371.355-16.778 9.035-20.811 8.681-4.033 18.307-.855 21.732 6.516 3.425 7.372-.355 16.778-9.035 20.811-8.681 4.033-18.307.855-21.732-6.516Z"/>
      <path id="Ellipse 2_3" d="M556.8 555.85c-3.425-7.372.354-16.778 9.035-20.811 8.681-4.033 18.307-.855 21.732 6.516 3.424 7.372-.355 16.778-9.036 20.811-8.68 4.033-18.307.855-21.731-6.516Z"/>
      <path id="Ellipse 6_3" d="M570.101 683.49c-3.425-7.371.354-16.778 9.035-20.811 8.681-4.033 18.307-.855 21.732 6.517 3.424 7.371-.355 16.778-9.036 20.811-8.68 4.033-18.307.854-21.731-6.517Z"/>
      <path id="Ellipse 7_3" d="M513.266 624.167c-2.974-6.402.361-14.69 8.114-18.292 7.753-3.602 16.239-.806 19.213 5.596 2.975 6.401-.361 14.69-8.114 18.292-7.753 3.602-16.239.806-19.213-5.596Z"/>
      <path id="Ellipse 8_3" d="M455.214 607.228c-1.604-3.451.331-8.403 5.352-10.736s10.053-.618 11.657 2.834c1.603 3.451-.332 8.403-5.352 10.736-5.021 2.332-10.054.618-11.657-2.834Z"/>
      <path id="Ellipse 9_3" d="M497.735 662.747c-1.604-3.452.332-8.404 5.352-10.736 5.021-2.333 10.054-.618 11.657 2.833 1.604 3.452-.332 8.404-5.352 10.736-5.021 2.333-10.053.618-11.657-2.833Z"/>
      <path id="Ellipse 3_3" d="M476.688 509.432c-3.425-7.371.354-16.778 9.035-20.811 8.681-4.033 18.307-.855 21.732 6.517 3.424 7.371-.355 16.777-9.036 20.81-8.68 4.033-18.307.855-21.731-6.516Z"/>
      <path id="Ellipse 4_3" d="M565.246 439.015c-3.424-7.372.355-16.778 9.036-20.811 8.68-4.033 18.307-.855 21.731 6.516 3.425 7.371-.354 16.778-9.035 20.811-8.681 4.033-18.307.855-21.732-6.516Z"/>
      <path id="Ellipse 5_3" d="M637.368 468.235c-3.424-7.371.355-16.778 9.036-20.811 8.68-4.033 18.307-.855 21.731 6.516 3.425 7.372-.354 16.778-9.035 20.811-8.681 4.033-18.307.855-21.732-6.516Z"/>
    </g>
    <g id="logo-10" stroke="#fff" stroke-width="4">
      <path id="Vector 3_4" d="M599.261 775.655c-27.307-4.551-35.397-38.558-36.03-54.992-30.34 0-87.228 5.688-136.531 51.199-39.443 36.408-35.397 111.248-28.444 144.117 13.906 37.293 66.369 109.601 164.975 100.501 98.607-9.1 124.522-97.341 125.154-140.323-25.789-1.517-34.765-24.652-36.029-36.029-43.993-1.517-53.727-43.614-53.095-64.473Z"/>
      <path id="Ellipse 1_4" d="M511.929 805.995c0 8.128-7.391 15.066-16.963 15.066-9.572 0-16.963-6.938-16.963-15.066s7.391-15.067 16.963-15.067c9.572 0 16.963 6.939 16.963 15.067Z"/>
      <path id="Ellipse 2_4" d="M583.987 843.92c0 8.128-7.391 15.067-16.963 15.067-9.571 0-16.962-6.939-16.962-15.067s7.391-15.066 16.962-15.066c9.572 0 16.963 6.938 16.963 15.066Z"/>
      <path id="Ellipse 6_4" d="M625.705 722.559c0 8.128-7.391 15.066-16.963 15.066-9.571 0-16.962-6.938-16.962-15.066s7.391-15.066 16.962-15.066c9.572 0 16.963 6.938 16.963 15.066Z"/>
      <path id="Ellipse 7_4" d="M652.253 800.306c0 7.059-6.518 13.17-15.067 13.17-8.548 0-15.066-6.111-15.066-13.17s6.518-13.17 15.066-13.17c8.549 0 15.067 6.111 15.067 13.17Z"/>
      <path id="Ellipse 8_4" d="M697.763 840.128c0 3.806-3.841 7.481-9.377 7.481-5.536 0-9.378-3.675-9.378-7.481s3.842-7.481 9.378-7.481 9.377 3.675 9.377 7.481Z"/>
      <path id="Ellipse 9_4" d="M682.593 771.862c0 3.806-3.841 7.482-9.377 7.482-5.536 0-9.378-3.676-9.378-7.482s3.842-7.481 9.378-7.481 9.377 3.675 9.377 7.481Z"/>
      <path id="Ellipse 3_4" d="M637.083 919.772c0 8.128-7.391 15.066-16.963 15.066-9.572 0-16.963-6.938-16.963-15.066s7.391-15.067 16.963-15.067c9.572 0 16.963 6.939 16.963 15.067Z"/>
      <path id="Ellipse 4_4" d="M527.099 946.319c0 8.128-7.391 15.067-16.963 15.067-9.572 0-16.963-6.939-16.963-15.067s7.391-15.066 16.963-15.066c9.572 0 16.963 6.938 16.963 15.066Z"/>
      <path id="Ellipse 5_4" d="M474.003 889.431c0 8.128-7.391 15.067-16.963 15.067-9.571 0-16.962-6.939-16.962-15.067s7.391-15.066 16.962-15.066c9.572 0 16.963 6.938 16.963 15.066Z"/>
    </g>
    <g id="logo-8" stroke="#fff" stroke-width="4">
      <path id="Vector 3_5" d="M1337.5 437.134c-27.31-4.551-35.4-38.558-36.03-54.992-30.34 0-87.23 5.688-136.53 51.199-39.45 36.408-35.4 111.248-28.45 144.117 13.91 37.293 66.37 109.604 164.98 100.502 98.6-9.102 124.52-97.342 125.15-140.324-25.79-1.517-34.76-24.652-36.03-36.029-43.99-1.517-53.72-43.614-53.09-64.473Z"/>
      <path id="Ellipse 1_5" d="M1250.17 467.474c0 8.128-7.4 15.066-16.97 15.066-9.57 0-16.96-6.938-16.96-15.066s7.39-15.066 16.96-15.066 16.97 6.938 16.97 15.066Z"/>
      <path id="Ellipse 2_5" d="M1322.22 505.399c0 8.128-7.39 15.067-16.96 15.067s-16.96-6.939-16.96-15.067 7.39-15.066 16.96-15.066 16.96 6.938 16.96 15.066Z"/>
      <path id="Ellipse 6_5" d="M1363.94 384.038c0 8.128-7.39 15.066-16.96 15.066s-16.96-6.938-16.96-15.066 7.39-15.066 16.96-15.066 16.96 6.938 16.96 15.066Z"/>
      <path id="Ellipse 7_5" d="M1390.49 461.785c0 7.059-6.52 13.17-15.07 13.17s-15.06-6.111-15.06-13.17 6.51-13.17 15.06-13.17 15.07 6.111 15.07 13.17Z"/>
      <path id="Ellipse 8_5" d="M1436 501.607c0 3.806-3.84 7.481-9.38 7.481-5.53 0-9.38-3.675-9.38-7.481s3.85-7.481 9.38-7.481c5.54 0 9.38 3.675 9.38 7.481Z"/>
      <path id="Ellipse 9_5" d="M1420.83 433.341c0 3.806-3.84 7.482-9.38 7.482-5.53 0-9.38-3.676-9.38-7.482s3.85-7.481 9.38-7.481c5.54 0 9.38 3.675 9.38 7.481Z"/>
      <path id="Ellipse 3_5" d="M1375.32 581.251c0 8.128-7.39 15.066-16.96 15.066-9.58 0-16.97-6.938-16.97-15.066s7.39-15.067 16.97-15.067c9.57 0 16.96 6.939 16.96 15.067Z"/>
      <path id="Ellipse 4_5" d="M1265.34 607.798c0 8.128-7.4 15.067-16.97 15.067-9.57 0-16.96-6.939-16.96-15.067s7.39-15.066 16.96-15.066 16.97 6.938 16.97 15.066Z"/>
      <path id="Ellipse 5_5" d="M1212.24 550.91c0 8.128-7.39 15.067-16.96 15.067s-16.97-6.939-16.97-15.067 7.4-15.066 16.97-15.066c9.57 0 16.96 6.938 16.96 15.066Z"/>
    </g>
    <g id="logo-11" stroke="#fff" stroke-width="4">
      <path id="Vector 3_6" d="M868.723 729.541c-19.449 19.699-51.908 6.725-65.706-2.225-17.476 24.802-45.595 74.581-36.792 141.098 7.042 53.214 70.549 93.016 101.422 106.265 38.495 10.114 127.825 8.881 177.183-76.966 49.36-85.848-7.84-157.86-42.61-183.135-16.1 20.207-40.181 14.219-50.21 8.698-26.581 35.088-66.6 18.797-83.287 6.265Z"/>
      <path id="Ellipse 1_6" d="M843.22 818.406c6.644 4.682 8.058 14.72 2.545 22.544-5.514 7.825-15.443 9.87-22.087 5.188-6.644-4.682-8.058-14.721-2.545-22.545 5.513-7.824 15.443-9.869 22.087-5.187Z"/>
      <path id="Ellipse 2_6" d="M915.728 781.348c6.644 4.682 8.059 14.721 2.545 22.545-5.513 7.824-15.442 9.869-22.086 5.187-6.645-4.682-8.059-14.72-2.545-22.544 5.513-7.825 15.442-9.87 22.086-5.188Z"/>
      <path id="Ellipse 6_6" d="M840.553 677.34c6.644 4.682 8.059 14.72 2.545 22.545-5.513 7.824-15.442 9.869-22.086 5.187-6.645-4.682-8.059-14.72-2.545-22.544 5.513-7.825 15.442-9.87 22.086-5.188Z"/>
      <path id="Ellipse 7_6" d="M919.399 700.423c5.77 4.066 7.011 12.914 2.087 19.902-4.924 6.988-13.674 8.795-19.444 4.729s-7.012-12.914-2.088-19.902c4.925-6.988 13.675-8.795 19.445-4.729Z"/>
      <path id="Ellipse 8_6" d="M978.165 686.159c3.112 2.192 3.903 7.449.714 11.975-3.189 4.525-8.406 5.548-11.517 3.356-3.111-2.192-3.903-7.45-.714-11.975 3.189-4.525 8.406-5.548 11.517-3.356Z"/>
      <path id="Ellipse 9_6" d="M913.624 659.237c3.111 2.192 3.903 7.45.714 11.975-3.189 4.526-8.406 5.549-11.517 3.356-3.111-2.192-3.903-7.449-.714-11.975 3.189-4.525 8.406-5.548 11.517-3.356Z"/>
      <path id="Ellipse 3_6" d="M1008.32 781.638c6.64 4.681 8.05 14.72 2.54 22.544-5.51 7.824-15.442 9.869-22.086 5.188-6.644-4.682-8.058-14.721-2.545-22.545 5.514-7.824 15.441-9.869 22.091-5.187Z"/>
      <path id="Ellipse 4_6" d="M966.664 886.834c6.644 4.682 8.059 14.721 2.545 22.545-5.513 7.824-15.442 9.869-22.086 5.187-6.645-4.681-8.059-14.72-2.546-22.544 5.514-7.824 15.443-9.869 22.087-5.188Z"/>
      <path id="Ellipse 5_6" d="M889.578 897.468c6.644 4.682 8.058 14.721 2.545 22.545-5.514 7.824-15.443 9.869-22.087 5.187-6.644-4.682-8.058-14.72-2.545-22.544 5.513-7.825 15.443-9.87 22.087-5.188Z"/>
    </g>
    <g id="logo-5" stroke="#fff" stroke-width="4">
      <path id="Vector 3_7" d="M193.723 441.541c-19.449 19.699-51.908 6.725-65.706-2.225-17.476 24.801-45.595 74.581-36.792 141.098 7.042 53.213 70.549 93.016 101.422 106.265 38.495 10.114 127.825 8.881 177.183-76.966 49.359-85.848-7.844-157.86-42.615-183.135-16.095 20.207-40.176 14.218-50.205 8.698-26.581 35.088-66.6 18.797-83.287 6.265Z"/>
      <path id="Ellipse 1_7" d="M168.22 530.406c6.644 4.682 8.058 14.72 2.545 22.544-5.514 7.825-15.443 9.87-22.087 5.188-6.644-4.682-8.059-14.721-2.545-22.545 5.513-7.824 15.443-9.869 22.087-5.187Z"/>
      <path id="Ellipse 2_7" d="M240.728 493.348c6.644 4.682 8.059 14.721 2.545 22.545-5.513 7.824-15.442 9.869-22.086 5.187-6.645-4.682-8.059-14.72-2.545-22.544 5.513-7.824 15.442-9.87 22.086-5.188Z"/>
      <path id="Ellipse 6_7" d="M165.553 389.34c6.644 4.682 8.059 14.72 2.545 22.545-5.513 7.824-15.442 9.869-22.086 5.187-6.645-4.682-8.059-14.72-2.546-22.544 5.514-7.825 15.443-9.87 22.087-5.188Z"/>
      <path id="Ellipse 7_7" d="M244.399 412.423c5.77 4.066 7.011 12.914 2.087 19.902-4.924 6.988-13.674 8.795-19.444 4.729s-7.012-12.914-2.088-19.902c4.925-6.988 13.675-8.795 19.445-4.729Z"/>
      <path id="Ellipse 8_7" d="M303.165 398.159c3.112 2.192 3.903 7.449.714 11.975-3.189 4.525-8.406 5.548-11.517 3.356-3.111-2.192-3.903-7.45-.714-11.975 3.189-4.525 8.406-5.548 11.517-3.356Z"/>
      <path id="Ellipse 9_7" d="M238.624 371.237c3.111 2.192 3.903 7.45.714 11.975-3.189 4.526-8.406 5.549-11.517 3.356-3.111-2.192-3.903-7.449-.714-11.975 3.189-4.525 8.406-5.548 11.517-3.356Z"/>
      <path id="Ellipse 3_7" d="M333.316 493.638c6.644 4.681 8.058 14.72 2.545 22.544-5.514 7.824-15.443 9.869-22.087 5.187-6.644-4.681-8.058-14.72-2.545-22.544 5.514-7.824 15.443-9.869 22.087-5.187Z"/>
      <path id="Ellipse 4_7" d="M291.664 598.834c6.644 4.682 8.059 14.721 2.545 22.545-5.513 7.824-15.442 9.869-22.086 5.187-6.645-4.681-8.059-14.72-2.546-22.544 5.514-7.824 15.443-9.869 22.087-5.188Z"/>
      <path id="Ellipse 5_7" d="M214.578 609.468c6.644 4.682 8.058 14.721 2.545 22.545-5.514 7.824-15.443 9.869-22.087 5.187-6.644-4.682-8.058-14.72-2.545-22.544 5.513-7.825 15.443-9.87 22.087-5.188Z"/>
    </g>
    <g id="logo-7" stroke="#fff" stroke-width="4">
      <path id="Vector 3_8" d="M856.103 412.218c-9.268 26.086-44.166 28.089-60.457 25.83-5.319 29.871-9.692 86.875 26.47 143.394 28.929 45.214 103.319 54.352 136.898 53.27 39.153-7.153 119.546-46.126 127.866-144.801 8.33-98.675-74-139.659-116.206-147.817-6.015 25.124-30.365 29.905-41.788 29.154-9.206 43.047-52.358 45.25-72.783 40.97Z"/>
      <path id="Ellipse 1_8" d="M870.662 503.517c8.003 1.425 13.538 9.918 11.86 19.341-1.678 9.424-9.805 15.484-17.807 14.059-8.002-1.425-13.538-9.918-11.86-19.341 1.679-9.424 9.805-15.484 17.807-14.059Z"/>
      <path id="Ellipse 2_8" d="M920.634 439.224c8.002 1.425 13.537 9.918 11.859 19.341-1.678 9.424-9.805 15.484-17.807 14.059-8.002-1.425-13.537-9.918-11.859-19.342 1.678-9.423 9.805-15.483 17.807-14.058Z"/>
      <path id="Ellipse 6_8" d="M808.466 376.875c8.002 1.425 13.537 9.918 11.859 19.341-1.678 9.424-9.805 15.484-17.807 14.059-8.002-1.425-13.537-9.918-11.859-19.341 1.678-9.424 9.805-15.484 17.807-14.059Z"/>
      <path id="Ellipse 7_8" d="M889.663 364.369c6.95 1.237 11.824 8.725 10.325 17.142-1.499 8.416-8.658 13.761-15.608 12.524-6.949-1.238-11.823-8.726-10.324-17.142 1.498-8.417 8.658-13.762 15.607-12.524Z"/>
      <path id="Ellipse 8_8" d="M936.847 326.545c3.747.667 6.692 5.093 5.722 10.544-.971 5.45-5.263 8.588-9.01 7.921-3.747-.668-6.692-5.094-5.721-10.544.97-5.451 5.262-8.589 9.009-7.921Z"/>
      <path id="Ellipse 9_8" d="M866.979 329.512c3.747.667 6.692 5.093 5.722 10.544-.971 5.45-5.263 8.588-9.01 7.92-3.747-.667-6.692-5.093-5.721-10.544.97-5.45 5.262-8.588 9.009-7.92Z"/>
      <path id="Ellipse 3_8" d="M1004.62 400.249c8 1.425 13.54 9.918 11.86 19.341-1.68 9.424-9.81 15.484-17.809 14.059-8.002-1.425-13.537-9.918-11.859-19.342 1.678-9.423 9.805-15.483 17.808-14.058Z"/>
      <path id="Ellipse 4_8" d="M1011.47 513.183c8 1.425 13.54 9.918 11.86 19.342-1.68 9.423-9.8 15.483-17.8 14.058-8.007-1.425-13.542-9.918-11.864-19.341 1.678-9.423 9.804-15.484 17.804-14.059Z"/>
      <path id="Ellipse 5_8" d="M946.157 555.483c8.002 1.425 13.538 9.918 11.859 19.342-1.678 9.423-9.804 15.483-17.807 14.058-8.002-1.425-13.537-9.918-11.859-19.341 1.678-9.424 9.805-15.484 17.807-14.059Z"/>
    </g>
    <g id="logo-9" stroke="#fff" stroke-width="4">
      <path id="Vector 3_9" d="M73.9 888.372c17.652 21.324 1.493 52.321-8.794 65.153 22.927 19.873 69.641 52.835 136.705 50.735 53.651-1.68 99.612-60.879 115.887-90.271 13.918-37.288 21.636-126.293-58.838-183.999-80.473-57.707-157.851-8.002-186.481 24.063 18.494 18.038 10.124 41.398 3.627 50.824 32.25 29.961 12.033 68.147-2.107 83.495Z"/>
      <path id="Ellipse 1_9" d="M159.764 922.646c5.324-6.142 15.453-6.544 22.686-.275 7.233 6.269 8.273 16.353 2.95 22.495-5.324 6.142-15.453 6.544-22.686.275-7.233-6.269-8.274-16.353-2.95-22.495Z"/>
      <path id="Ellipse 2_9" d="M130.153 846.791c5.324-6.142 15.453-6.544 22.686-.275 7.233 6.269 8.274 16.354 2.95 22.495-5.324 6.142-15.453 6.544-22.686.275-7.233-6.269-8.273-16.353-2.95-22.495Z"/>
      <path id="Ellipse 6_9" d="M19.14 911.174c5.324-6.142 15.454-6.544 22.686-.275 7.233 6.269 8.274 16.353 2.95 22.495-5.323 6.142-15.453 6.544-22.686.275-7.233-6.269-8.273-16.353-2.95-22.495Z"/>
      <path id="Ellipse 7_9" d="M50.002 835.036c4.623-5.334 13.55-5.684 20.01-.084 6.461 5.599 7.383 14.486 2.76 19.82-4.624 5.334-13.551 5.683-20.011.084-6.46-5.599-7.383-14.486-2.76-19.82Z"/>
      <path id="Ellipse 8_9" d="M41.694 775.136c2.493-2.876 7.803-3.137 11.986.489 4.184 3.626 4.68 8.919 2.187 11.795-2.493 2.876-7.803 3.137-11.987-.488-4.183-3.626-4.679-8.92-2.186-11.796Z"/>
      <path id="Ellipse 9_9" d="M8.445 836.657c2.493-2.876 7.803-3.137 11.986.489 4.184 3.626 4.68 8.92 2.186 11.795-2.492 2.876-7.803 3.138-11.986-.488-4.183-3.626-4.679-8.92-2.186-11.796Z"/>
      <path id="Ellipse 3_9" d="M139.712 754.698c5.324-6.142 15.453-6.544 22.686-.275 7.233 6.269 8.274 16.353 2.95 22.495-5.324 6.142-15.453 6.544-22.686.275-7.233-6.269-8.274-16.353-2.95-22.495Z"/>
      <path id="Ellipse 4_9" d="M240.21 806.674c5.323-6.142 15.453-6.544 22.686-.275 7.232 6.269 8.273 16.353 2.949 22.495-5.323 6.142-15.453 6.544-22.686.275-7.233-6.269-8.273-16.353-2.949-22.495Z"/>
      <path id="Ellipse 5_9" d="M243.071 884.438c5.324-6.142 15.453-6.544 22.686-.275 7.233 6.269 8.273 16.353 2.95 22.495-5.324 6.142-15.453 6.544-22.686.275-7.233-6.269-8.274-16.354-2.95-22.495Z"/>
    </g>
    <g id="logo-4" stroke="#fff" stroke-width="4">
      <path id="Vector 3_10" d="M1207.95 281.674c26.68-7.378 48.35 20.054 55.84 34.692 27.52-12.784 76.71-41.913 102.25-103.96 20.43-49.638-14.77-115.805-34.93-142.684-28.32-27.962-106.37-71.436-191.96-21.634-85.59 49.802-71.91 140.746-54.38 179.993 24.03-9.49 41.92 7.708 47.86 17.494 40.54-17.16 67.1 16.916 75.32 36.099Z"/>
      <path id="Ellipse 1_10" d="M1274.37 217.362c-3.43-7.371.35-16.778 9.03-20.811 8.68-4.033 18.31-.855 21.73 6.516 3.43 7.372-.35 16.778-9.03 20.811-8.68 4.033-18.31.855-21.73-6.516Z"/>
      <path id="Ellipse 2_10" d="M1193.04 213.329c-3.43-7.372.35-16.778 9.03-20.811 8.68-4.033 18.31-.855 21.73 6.516 3.43 7.372-.35 16.778-9.03 20.811-8.68 4.033-18.31.855-21.73-6.516Z"/>
      <path id="Ellipse 6_10" d="M1206.34 340.969c-3.43-7.371.35-16.778 9.03-20.811 8.68-4.033 18.31-.855 21.73 6.517 3.43 7.371-.35 16.778-9.03 20.811-8.68 4.033-18.31.854-21.73-6.517Z"/>
      <path id="Ellipse 7_10" d="M1149.5 281.646c-2.97-6.402.36-14.69 8.12-18.292 7.75-3.602 16.24-.806 19.21 5.596 2.97 6.401-.36 14.69-8.11 18.292-7.76 3.602-16.24.806-19.22-5.596Z"/>
      <path id="Ellipse 8_10" d="M1091.45 264.707c-1.6-3.451.33-8.403 5.35-10.736s10.06-.618 11.66 2.834c1.6 3.451-.33 8.403-5.35 10.736-5.02 2.332-10.06.618-11.66-2.834Z"/>
      <path id="Ellipse 9_10" d="M1133.97 320.226c-1.6-3.452.33-8.404 5.35-10.736 5.02-2.333 10.06-.618 11.66 2.833 1.6 3.452-.33 8.404-5.35 10.736-5.02 2.333-10.06.618-11.66-2.833Z"/>
      <path id="Ellipse 3_10" d="M1112.92 166.911c-3.42-7.371.36-16.778 9.04-20.811 8.68-4.033 18.31-.855 21.73 6.517 3.43 7.371-.35 16.777-9.03 20.81-8.68 4.033-18.31.855-21.74-6.516Z"/>
      <path id="Ellipse 4_10" d="M1201.48 96.494c-3.42-7.372.36-16.778 9.04-20.811 8.68-4.033 18.31-.855 21.73 6.516 3.42 7.371-.35 16.778-9.04 20.811-8.68 4.033-18.3.855-21.73-6.516Z"/>
      <path id="Ellipse 5_10" d="M1273.6 125.714c-3.42-7.371.36-16.778 9.04-20.811 8.68-4.033 18.31-.855 21.73 6.516 3.43 7.372-.35 16.778-9.03 20.811-8.68 4.033-18.31.855-21.74-6.516Z"/>
    </g>
    <g id="logo-3" stroke="#fff" stroke-width="4">
      <path id="Vector 3_11" d="M879.542 259.822c21.072-17.953 52.294-2.234 65.271 7.869 19.545-23.206 51.842-70.382 48.794-137.41-2.439-53.622-62.286-98.74-91.905-114.596C864.22 2.298 775.115-4.158 718.554 77.126c-56.56 81.282-5.764 157.948 26.704 186.121 17.774-18.748 41.25-10.71 50.767-4.347 29.501-32.671 67.97-12.998 83.517.923Z"/>
      <path id="Ellipse 1_11" d="M912.595 173.481c-6.216-5.236-6.762-15.359-.596-22.68 6.166-7.321 16.235-8.505 22.451-3.268 6.217 5.236 6.763 15.358.597 22.679-6.167 7.321-16.235 8.505-22.452 3.269Z"/>
      <path id="Ellipse 2_11" d="M837.168 204.163c-6.217-5.236-6.763-15.359-.596-22.68 6.166-7.321 16.234-8.504 22.451-3.268 6.216 5.236 6.762 15.359.596 22.68-6.166 7.321-16.234 8.504-22.451 3.268Z"/>
      <path id="Ellipse 6_11" d="M903.117 314.253c-6.217-5.236-6.762-15.359-.596-22.68 6.166-7.321 16.234-8.504 22.451-3.268 6.217 5.236 6.762 15.358.596 22.679-6.166 7.321-16.234 8.505-22.451 3.269Z"/>
      <path id="Ellipse 7_11" d="M826.549 284.473c-5.399-4.547-5.874-13.469-.367-20.008 5.507-6.538 14.38-7.586 19.779-3.039 5.399 4.547 5.875 13.469.367 20.008-5.507 6.538-14.38 7.586-19.779 3.039Z"/>
      <path id="Ellipse 8_11" d="M766.773 293.629c-2.91-2.452-3.247-7.758.319-11.992 3.567-4.235 8.853-4.805 11.764-2.353 2.911 2.451 3.247 7.757-.319 11.992-3.567 4.234-8.853 4.805-11.764 2.353Z"/>
      <path id="Ellipse 9_11" d="M828.76 326.003c-2.911-2.452-3.248-7.758.319-11.992 3.566-4.235 8.852-4.805 11.763-2.353 2.911 2.451 3.247 7.757-.319 11.992-3.566 4.234-8.852 4.805-11.763 2.353Z"/>
      <path id="Ellipse 3_11" d="M744.948 195.91c-6.216-5.236-6.762-15.359-.596-22.68 6.166-7.321 16.234-8.504 22.451-3.268 6.217 5.236 6.763 15.359.596 22.68-6.166 7.321-16.234 8.504-22.451 3.268Z"/>
      <path id="Ellipse 4_11" d="M795.495 94.686c-6.217-5.236-6.762-15.359-.596-22.68 6.166-7.32 16.234-8.504 22.451-3.268 6.217 5.236 6.762 15.36.596 22.68-6.166 7.321-16.234 8.504-22.451 3.268Z"/>
      <path id="Ellipse 5_11" d="M873.211 90.723c-6.217-5.236-6.763-15.359-.597-22.68 6.166-7.32 16.235-8.504 22.451-3.268 6.217 5.236 6.763 15.36.597 22.68-6.166 7.321-16.235 8.504-22.451 3.268Z"/>
    </g>
    <g id="logo-1" stroke="#fff" stroke-width="4">
      <path id="Vector 3_12" d="M74.454 133.796c6.316 26.953-21.952 47.515-36.876 54.427 11.684 28.001 38.842 78.311 99.829 106.285 48.79 22.38 116.3-10.174 143.956-29.248 29.062-27.196 75.592-103.46 29.219-190.956S172.794-3.128 132.884 12.841c8.531 24.385-9.363 41.577-19.376 47.126 15.542 41.184-19.56 66.379-39.054 73.829Z"/>
      <path id="Ellipse 1_12" d="M136.086 202.708c7.501-3.13 16.751 1.019 20.437 9.853 3.686 8.833.129 18.326-7.372 21.456-7.501 3.13-16.751-1.019-20.437-9.852-3.686-8.834-.129-18.327 7.372-21.457Z"/>
      <path id="Ellipse 2_12" d="M143.337 121.602c7.501-3.13 16.751 1.019 20.437 9.853 3.686 8.833.129 18.326-7.372 21.456-7.501 3.13-16.751-1.019-20.437-9.852-3.686-8.834-.129-18.327 7.372-21.457Z"/>
      <path id="Ellipse 6_12" d="M15.27 129.838c7.501-3.13 16.75 1.019 20.437 9.852 3.686 8.834.129 18.327-7.372 21.457-7.502 3.13-16.751-1.019-20.437-9.853-3.686-8.833-.13-18.326 7.372-21.456Z"/>
      <path id="Ellipse 7_12" d="M76.797 75.397c6.515-2.718 14.665.943 17.957 8.833 3.292 7.89.162 16.258-6.353 18.976-6.514 2.718-14.664-.943-17.956-8.833-3.292-7.89-.162-16.258 6.352-18.976Z"/>
      <path id="Ellipse 8_12" d="M96.022 18.061c3.512-1.465 8.384.665 10.516 5.774 2.132 5.109.219 10.07-3.293 11.535-3.513 1.466-8.384-.664-10.516-5.773-2.132-5.11-.22-10.07 3.293-11.536Z"/>
      <path id="Ellipse 9_12" d="M38.863 58.35c3.513-1.465 8.384.665 10.516 5.774 2.132 5.109.22 10.07-3.293 11.535-3.513 1.466-8.384-.664-10.516-5.773-2.132-5.11-.22-10.07 3.293-11.535Z"/>
      <path id="Ellipse 3_12" d="M192.891 43.392c7.501-3.13 16.751 1.018 20.437 9.852 3.686 8.833.129 18.326-7.372 21.457-7.501 3.13-16.751-1.02-20.437-9.853s-.129-18.326 7.372-21.456Z"/>
      <path id="Ellipse 4_12" d="M259.746 134.67c7.501-3.131 16.751 1.018 20.437 9.852 3.686 8.833.129 18.326-7.372 21.456-7.502 3.131-16.751-1.018-20.437-9.852-3.686-8.833-.129-18.326 7.372-21.456Z"/>
      <path id="Ellipse 5_12" d="M227.692 205.578c7.501-3.13 16.751 1.019 20.437 9.852 3.686 8.834.129 18.327-7.372 21.457-7.501 3.13-16.751-1.019-20.437-9.853-3.686-8.833-.129-18.326 7.372-21.456Z"/>
    </g>
    <g id="flower" stroke="#fff" stroke-width="5">
      <path id="Vector 1" d="M716.485 540.54c3.664-40.01 36.492-133.132 138.495-185.54"/>
      <path id="Vector 2" d="M715.166 570.877c-1.173 27.406 8.793 84.944 58.036 95.848 14.362-1.319 38.779-11.52 21.544-41.769 15.535-7.035 37.283-27.699 0-54.079-12.311-3.957-39.922-12.311-51.881-14.069 29.311 9.672 92.77 17.938 112.115-26.38.44-13.484-6.243-38.164-36.492-29.019-4.69-27.699-28.139-62.432-84.417 20.225 13.923-25.94 31.657-84.416-8.793-110.796-12.017-6.742-35.613-10.64-33.854 27.699-31.07-.44-72.546 15.564 10.112 83.097-18.906-20.518-66.829-56.277-107.279-35.173-10.405 9.966-22.951 32.711 10.112 43.967-9.233 28.138-5.012 71.577 85.736 20.224-31.949 12.897-90.572 49.067-69.468 90.572 5.716 9.673 22.511 23.214 43.967 0 21.397 20.664 61.466 35.525 50.562-70.347Z"/>
    </g>
  </g>
  <defs>
    <clipPath id="clip0_9:2">
      <path fill="#fff" d="M0 0h1440v1024H0z"/>
    </clipPath>
  </defs>
</svg>
